SplineFontDB: 3.2
FontName: 5x5-Tami
FullName: 5x5 Tami Regular
FamilyName: Tami
Weight: Book
Copyright: Copyright Negociator 2011 with additions by yair at tami
Version: 1.0
ItalicAngle: 0
UnderlinePosition: 77
UnderlineWidth: 51
Ascent: 819
Descent: 205
InvalidEm: 0
sfntRevision: 0x00010000
LayerCount: 2
Layer: 0 1 "Back" 1
Layer: 1 1 "Fore" 0
XUID: [1021 873 321397855 3677931]
StyleMap: 0x0040
FSType: 4
OS2Version: 2
OS2_WeightWidthSlopeOnly: 0
OS2_UseTypoMetrics: 0
CreationTime: 1303010055
ModificationTime: 1705342190
PfmFamily: 81
TTFWeight: 400
TTFWidth: 5
LineGap: 0
VLineGap: 0
Panose: 0 0 4 0 0 0 0 0 0 0
OS2TypoAscent: 640
OS2TypoAOffset: 0
OS2TypoDescent: 0
OS2TypoDOffset: 0
OS2TypoLinegap: 0
OS2WinAscent: 640
OS2WinAOffset: 0
OS2WinDescent: 0
OS2WinDOffset: 0
HheadAscent: 640
HheadAOffset: 0
HheadDescent: 0
HheadDOffset: 0
OS2SubXSize: 512
OS2SubYSize: 512
OS2SubXOff: 0
OS2SubYOff: 0
OS2SupXSize: 512
OS2SupYSize: 512
OS2SupXOff: 0
OS2SupYOff: 512
OS2StrikeYSize: 51
OS2StrikeYPos: 204
OS2CapHeight: 640
OS2XHeight: 640
OS2Vendor: 'FSTR'
OS2CodePages: 00000001.00000000
OS2UnicodeRanges: 00000001.00000000.00000000.00000000
MarkAttachClasses: 1
DEI: 91125
ShortTable: maxp 16
  1
  0
  70
  36
  9
  0
  0
  2
  0
  0
  0
  0
  0
  0
  0
  0
EndShort
LangName: 1033 "" "" "Regular" "FontForge 2.0 : 5x5 Tami Regular : 8-6-2023" "" "Version 1.0" "" "FontStruct is a trademark of FSI FontShop International GmbH" "http://fontstruct.com" "Negociator" "+IBwA-5x5 Pixel+IB0A was built with FontStruct+AAoA" "http://www.fontshop.com" "http://fontstruct.com/fontstructions/show/474295" "Creative Commons Attribution Share Alike" "http://creativecommons.org/licenses/by-sa/3.0/" "" "" "" "" "Five big quacking zephyrs jolt my wax bed"
GaspTable: 1 65535 2 0
Encoding: UnicodeBmp
UnicodeInterp: none
NameList: AGL For New Fonts
DisplaySize: -48
AntiAlias: 1
FitToEm: 0
WinInfo: 0 25 13
BeginChars: 65537 77

StartChar: .notdef
Encoding: 65536 -1 0
Width: 0
GlyphClass: 1
Flags: W
LayerCount: 2
Fore
SplineSet
320 90 m 1,0,-1
 320 192 l 1,1,-1
 218 192 l 1,2,-1
 218 90 l 1,3,-1
 320 90 l 1,0,-1
421 209 m 1,4,-1
 421 311 l 1,5,-1
 218 311 l 1,6,-1
 218 209 l 1,7,-1
 421 209 l 1,4,-1
320 328 m 1,8,-1
 320 430 l 1,9,-1
 218 430 l 1,10,-1
 218 328 l 1,11,-1
 320 328 l 1,8,-1
421 447 m 1,12,-1
 421 548 l 1,13,-1
 320 548 l 2,14,15
 277 548 277 548 248 519 c 0,16,17
 218 488 218 488 218 447 c 1,18,-1
 421 447 l 1,12,-1
0 0 m 1,19,-1
 0 640 l 1,20,-1
 640 640 l 1,21,-1
 640 0 l 1,22,-1
 0 0 l 1,19,-1
EndSplineSet
EndChar

StartChar: zero
Encoding: 48 48 4
Width: 768
GlyphClass: 1
Flags: W
LayerCount: 2
Fore
SplineSet
128 0 m 1,0,-1
 128 128 l 1,1,-1
 512 128 l 1,2,-1
 512 0 l 1,3,-1
 128 0 l 1,0,-1
0 128 m 1,4,-1
 0 512 l 1,5,-1
 128 512 l 1,6,-1
 128 128 l 1,7,-1
 0 128 l 1,4,-1
512 128 m 1,8,-1
 512 512 l 1,9,-1
 640 512 l 1,10,-1
 640 128 l 1,11,-1
 512 128 l 1,8,-1
128 512 m 1,12,-1
 128 640 l 1,13,-1
 512 640 l 1,14,-1
 512 512 l 1,15,-1
 128 512 l 1,12,-1
EndSplineSet
EndChar

StartChar: one
Encoding: 49 49 5
Width: 384
GlyphClass: 1
Flags: W
LayerCount: 2
Fore
SplineSet
128 0 m 1,0,-1
 128 512 l 1,1,-1
 0 512 l 1,2,-1
 0 640 l 1,3,-1
 256 640 l 1,4,-1
 256 0 l 1,5,-1
 128 0 l 1,0,-1
EndSplineSet
EndChar

StartChar: two
Encoding: 50 50 6
Width: 640
GlyphClass: 1
Flags: W
LayerCount: 2
Fore
SplineSet
0 0 m 1,0,-1
 0 128 l 1,1,-1
 128 128 l 1,2,-1
 128 256 l 1,3,-1
 256 256 l 1,4,-1
 256 128 l 1,5,-1
 512 128 l 1,6,-1
 512 0 l 1,7,-1
 0 0 l 1,0,-1
256 256 m 1,8,-1
 256 384 l 1,9,-1
 384 384 l 1,10,-1
 384 256 l 1,11,-1
 256 256 l 1,8,-1
0 384 m 1,12,-1
 0 512 l 1,13,-1
 128 512 l 1,14,-1
 128 384 l 1,15,-1
 0 384 l 1,12,-1
384 384 m 1,16,-1
 384 512 l 1,17,-1
 512 512 l 1,18,-1
 512 384 l 1,19,-1
 384 384 l 1,16,-1
128 512 m 1,20,-1
 128 640 l 1,21,-1
 384 640 l 1,22,-1
 384 512 l 1,23,-1
 128 512 l 1,20,-1
EndSplineSet
EndChar

StartChar: three
Encoding: 51 51 7
Width: 640
GlyphClass: 1
Flags: W
LayerCount: 2
Fore
SplineSet
0 0 m 1,0,-1
 0 128 l 1,1,-1
 384 128 l 1,2,-1
 384 256 l 1,3,-1
 128 256 l 1,4,-1
 128 384 l 1,5,-1
 384 384 l 1,6,-1
 384 512 l 1,7,-1
 0 512 l 1,8,-1
 0 640 l 1,9,-1
 512 640 l 1,10,-1
 512 0 l 1,11,-1
 0 0 l 1,0,-1
EndSplineSet
EndChar

StartChar: four
Encoding: 52 52 8
Width: 640
GlyphClass: 1
Flags: W
LayerCount: 2
Fore
SplineSet
384 0 m 1,0,-1
 384 256 l 1,1,-1
 0 256 l 1,2,-1
 0 640 l 1,3,-1
 128 640 l 1,4,-1
 128 384 l 1,5,-1
 384 384 l 1,6,-1
 384 640 l 1,7,-1
 512 640 l 1,8,-1
 512 0 l 1,9,-1
 384 0 l 1,0,-1
EndSplineSet
EndChar

StartChar: five
Encoding: 53 53 9
Width: 640
GlyphClass: 1
Flags: W
LayerCount: 2
Fore
SplineSet
0 0 m 1,0,-1
 0 128 l 1,1,-1
 384 128 l 1,2,-1
 384 256 l 1,3,-1
 0 256 l 1,4,-1
 0 512 l 1,5,-1
 128 512 l 1,6,-1
 128 384 l 1,7,-1
 512 384 l 1,8,-1
 512 0 l 1,9,-1
 0 0 l 1,0,-1
128 512 m 1,10,-1
 128 640 l 1,11,-1
 512 640 l 1,12,-1
 512 512 l 1,13,-1
 128 512 l 1,10,-1
EndSplineSet
EndChar

StartChar: six
Encoding: 54 54 10
Width: 640
GlyphClass: 1
Flags: W
LayerCount: 2
Fore
SplineSet
384 128 m 1,0,-1
 384 256 l 1,1,-1
 128 256 l 1,2,-1
 128 128 l 1,3,-1
 384 128 l 1,0,-1
0 0 m 1,4,-1
 0 640 l 1,5,-1
 512 640 l 1,6,-1
 512 512 l 1,7,-1
 128 512 l 1,8,-1
 128 384 l 1,9,-1
 512 384 l 1,10,-1
 512 0 l 1,11,-1
 0 0 l 1,4,-1
EndSplineSet
EndChar

StartChar: seven
Encoding: 55 55 11
Width: 640
GlyphClass: 1
Flags: W
LayerCount: 2
Fore
SplineSet
0 0 m 1,0,-1
 0 128 l 1,1,-1
 128 128 l 1,2,-1
 128 0 l 1,3,-1
 0 0 l 1,0,-1
128 128 m 1,4,-1
 128 256 l 1,5,-1
 256 256 l 1,6,-1
 256 128 l 1,7,-1
 128 128 l 1,4,-1
256 256 m 1,8,-1
 256 384 l 1,9,-1
 384 384 l 1,10,-1
 384 256 l 1,11,-1
 256 256 l 1,8,-1
384 384 m 1,12,-1
 384 512 l 1,13,-1
 0 512 l 1,14,-1
 0 640 l 1,15,-1
 512 640 l 1,16,-1
 512 384 l 1,17,-1
 384 384 l 1,12,-1
EndSplineSet
EndChar

StartChar: eight
Encoding: 56 56 12
Width: 640
GlyphClass: 1
Flags: W
LayerCount: 2
Fore
SplineSet
0 0 m 1,0,-1
 0 256 l 1,1,-1
 128 256 l 1,2,-1
 128 128 l 1,3,-1
 384 128 l 1,4,-1
 384 256 l 1,5,-1
 512 256 l 1,6,-1
 512 0 l 1,7,-1
 0 0 l 1,0,-1
128 256 m 1,8,-1
 128 384 l 1,9,-1
 384 384 l 1,10,-1
 384 256 l 1,11,-1
 128 256 l 1,8,-1
0 384 m 1,12,-1
 0 640 l 1,13,-1
 512 640 l 1,14,-1
 512 384 l 1,15,-1
 384 384 l 1,16,-1
 384 512 l 1,17,-1
 128 512 l 1,18,-1
 128 384 l 1,19,-1
 0 384 l 1,12,-1
EndSplineSet
EndChar

StartChar: nine
Encoding: 57 57 13
Width: 640
GlyphClass: 1
Flags: W
LayerCount: 2
Fore
SplineSet
384 384 m 1,0,-1
 384 512 l 1,1,-1
 128 512 l 1,2,-1
 128 384 l 1,3,-1
 384 384 l 1,0,-1
0 0 m 1,4,-1
 0 128 l 1,5,-1
 384 128 l 1,6,-1
 384 256 l 1,7,-1
 0 256 l 1,8,-1
 0 640 l 1,9,-1
 512 640 l 1,10,-1
 512 0 l 1,11,-1
 0 0 l 1,4,-1
EndSplineSet
EndChar

StartChar: A
Encoding: 65 65 14
Width: 768
GlyphClass: 1
Flags: W
LayerCount: 2
Fore
SplineSet
512 384 m 1,0,-1
 512 512 l 1,1,-1
 128 512 l 1,2,-1
 128 384 l 1,3,-1
 512 384 l 1,0,-1
0 0 m 1,4,-1
 0 640 l 1,5,-1
 640 640 l 1,6,-1
 640 0 l 1,7,-1
 512 0 l 1,8,-1
 512 256 l 1,9,-1
 128 256 l 1,10,-1
 128 0 l 1,11,-1
 0 0 l 1,4,-1
EndSplineSet
EndChar

StartChar: B
Encoding: 66 66 15
Width: 768
GlyphClass: 1
Flags: W
LayerCount: 2
Fore
SplineSet
0 0 m 1,0,-1
 0 640 l 1,1,-1
 512 640 l 1,2,-1
 512 512 l 1,3,-1
 128 512 l 1,4,-1
 128 384 l 1,5,-1
 512 384 l 1,6,-1
 512 512 l 1,7,-1
 640 512 l 1,8,-1
 640 128 l 1,9,-1
 512 128 l 1,10,-1
 512 256 l 1,11,-1
 128 256 l 1,12,-1
 128 128 l 1,13,-1
 512 128 l 1,14,-1
 512 0 l 1,15,-1
 0 0 l 1,0,-1
EndSplineSet
EndChar

StartChar: C
Encoding: 67 67 16
Width: 768
GlyphClass: 1
Flags: W
LayerCount: 2
Fore
SplineSet
0 0 m 1,0,-1
 0 640 l 1,1,-1
 640 640 l 1,2,-1
 640 512 l 1,3,-1
 128 512 l 1,4,-1
 128 128 l 1,5,-1
 640 128 l 1,6,-1
 640 0 l 1,7,-1
 0 0 l 1,0,-1
EndSplineSet
EndChar

StartChar: D
Encoding: 68 68 17
Width: 768
GlyphClass: 1
Flags: W
LayerCount: 2
Fore
SplineSet
512 128 m 1,0,-1
 512 512 l 1,1,-1
 640 512 l 1,2,-1
 640 128 l 1,3,-1
 512 128 l 1,0,-1
0 0 m 1,4,-1
 0 640 l 1,5,-1
 512 640 l 1,6,-1
 512 512 l 1,7,-1
 128 512 l 1,8,-1
 128 128 l 1,9,-1
 512 128 l 1,10,-1
 512 0 l 1,11,-1
 0 0 l 1,4,-1
EndSplineSet
EndChar

StartChar: E
Encoding: 69 69 18
Width: 768
GlyphClass: 1
Flags: W
LayerCount: 2
Fore
SplineSet
0 0 m 1,0,-1
 0 640 l 1,1,-1
 640 640 l 1,2,-1
 640 512 l 1,3,-1
 128 512 l 1,4,-1
 128 384 l 1,5,-1
 512 384 l 1,6,-1
 512 256 l 1,7,-1
 128 256 l 1,8,-1
 128 128 l 1,9,-1
 640 128 l 1,10,-1
 640 0 l 1,11,-1
 0 0 l 1,0,-1
EndSplineSet
EndChar

StartChar: F
Encoding: 70 70 19
Width: 768
GlyphClass: 1
Flags: W
LayerCount: 2
Fore
SplineSet
0 0 m 1,0,-1
 0 640 l 1,1,-1
 640 640 l 1,2,-1
 640 512 l 1,3,-1
 128 512 l 1,4,-1
 128 384 l 1,5,-1
 512 384 l 1,6,-1
 512 256 l 1,7,-1
 128 256 l 1,8,-1
 128 0 l 1,9,-1
 0 0 l 1,0,-1
EndSplineSet
EndChar

StartChar: G
Encoding: 71 71 20
Width: 768
GlyphClass: 1
Flags: W
LayerCount: 2
Fore
SplineSet
0 0 m 1,0,-1
 0 640 l 1,1,-1
 640 640 l 1,2,-1
 640 512 l 1,3,-1
 128 512 l 1,4,-1
 128 128 l 1,5,-1
 512 128 l 1,6,-1
 512 256 l 1,7,-1
 256 256 l 1,8,-1
 256 384 l 1,9,-1
 640 384 l 1,10,-1
 640 0 l 1,11,-1
 0 0 l 1,0,-1
EndSplineSet
EndChar

StartChar: H
Encoding: 72 72 21
Width: 768
GlyphClass: 1
Flags: W
LayerCount: 2
Fore
SplineSet
0 0 m 1,0,-1
 0 640 l 1,1,-1
 128 640 l 1,2,-1
 128 384 l 1,3,-1
 512 384 l 1,4,-1
 512 640 l 1,5,-1
 640 640 l 1,6,-1
 640 0 l 1,7,-1
 512 0 l 1,8,-1
 512 256 l 1,9,-1
 128 256 l 1,10,-1
 128 0 l 1,11,-1
 0 0 l 1,0,-1
EndSplineSet
EndChar

StartChar: I
Encoding: 73 73 22
Width: 768
GlyphClass: 1
Flags: W
LayerCount: 2
Fore
SplineSet
0 0 m 1,0,-1
 0 128 l 1,1,-1
 256 128 l 1,2,-1
 256 512 l 1,3,-1
 0 512 l 1,4,-1
 0 640 l 1,5,-1
 640 640 l 1,6,-1
 640 512 l 1,7,-1
 384 512 l 1,8,-1
 384 128 l 1,9,-1
 640 128 l 1,10,-1
 640 0 l 1,11,-1
 0 0 l 1,0,-1
EndSplineSet
EndChar

StartChar: J
Encoding: 74 74 23
Width: 640
GlyphClass: 1
Flags: W
LayerCount: 2
Fore
SplineSet
0 0 m 1,0,-1
 0 256 l 1,1,-1
 128 256 l 1,2,-1
 128 128 l 1,3,-1
 256 128 l 1,4,-1
 256 512 l 1,5,-1
 0 512 l 1,6,-1
 0 640 l 1,7,-1
 512 640 l 1,8,-1
 512 512 l 1,9,-1
 384 512 l 1,10,-1
 384 0 l 1,11,-1
 0 0 l 1,0,-1
EndSplineSet
EndChar

StartChar: K
Encoding: 75 75 24
Width: 640
GlyphClass: 1
Flags: W
LayerCount: 2
Fore
SplineSet
384 0 m 1,0,-1
 384 128 l 1,1,-1
 512 128 l 1,2,-1
 512 0 l 1,3,-1
 384 0 l 1,0,-1
256 128 m 1,4,-1
 256 256 l 1,5,-1
 384 256 l 1,6,-1
 384 128 l 1,7,-1
 256 128 l 1,4,-1
256 384 m 1,8,-1
 256 512 l 1,9,-1
 384 512 l 1,10,-1
 384 384 l 1,11,-1
 256 384 l 1,8,-1
0 0 m 1,12,-1
 0 640 l 1,13,-1
 128 640 l 1,14,-1
 128 384 l 1,15,-1
 256 384 l 1,16,-1
 256 256 l 1,17,-1
 128 256 l 1,18,-1
 128 0 l 1,19,-1
 0 0 l 1,12,-1
384 512 m 1,20,-1
 384 640 l 1,21,-1
 512 640 l 1,22,-1
 512 512 l 1,23,-1
 384 512 l 1,20,-1
EndSplineSet
EndChar

StartChar: L
Encoding: 76 76 25
Width: 640
GlyphClass: 1
Flags: W
LayerCount: 2
Fore
SplineSet
0 0 m 1,0,-1
 0 640 l 1,1,-1
 128 640 l 1,2,-1
 128 128 l 1,3,-1
 512 128 l 1,4,-1
 512 0 l 1,5,-1
 0 0 l 1,0,-1
EndSplineSet
EndChar

StartChar: M
Encoding: 77 77 26
Width: 768
GlyphClass: 1
Flags: W
LayerCount: 2
Fore
SplineSet
256 256 m 1,0,-1
 256 384 l 1,1,-1
 384 384 l 1,2,-1
 384 256 l 1,3,-1
 256 256 l 1,0,-1
0 0 m 1,4,-1
 0 640 l 1,5,-1
 128 640 l 1,6,-1
 128 512 l 1,7,-1
 256 512 l 1,8,-1
 256 384 l 1,9,-1
 128 384 l 1,10,-1
 128 0 l 1,11,-1
 0 0 l 1,4,-1
512 0 m 1,12,-1
 512 384 l 1,13,-1
 384 384 l 1,14,-1
 384 512 l 1,15,-1
 512 512 l 1,16,-1
 512 640 l 1,17,-1
 640 640 l 1,18,-1
 640 0 l 1,19,-1
 512 0 l 1,12,-1
EndSplineSet
EndChar

StartChar: N
Encoding: 78 78 27
Width: 768
GlyphClass: 1
Flags: W
LayerCount: 2
Fore
SplineSet
256 256 m 1,0,-1
 256 384 l 1,1,-1
 384 384 l 1,2,-1
 384 256 l 1,3,-1
 256 256 l 1,0,-1
0 0 m 1,4,-1
 0 640 l 1,5,-1
 128 640 l 1,6,-1
 128 512 l 1,7,-1
 256 512 l 1,8,-1
 256 384 l 1,9,-1
 128 384 l 1,10,-1
 128 0 l 1,11,-1
 0 0 l 1,4,-1
512 0 m 1,12,-1
 512 128 l 1,13,-1
 384 128 l 1,14,-1
 384 256 l 1,15,-1
 512 256 l 1,16,-1
 512 640 l 1,17,-1
 640 640 l 1,18,-1
 640 0 l 1,19,-1
 512 0 l 1,12,-1
EndSplineSet
EndChar

StartChar: O
Encoding: 79 79 28
Width: 768
GlyphClass: 1
Flags: W
LayerCount: 2
Fore
SplineSet
512 128 m 1,0,-1
 512 512 l 1,1,-1
 128 512 l 1,2,-1
 128 128 l 1,3,-1
 512 128 l 1,0,-1
0 0 m 1,4,-1
 0 640 l 1,5,-1
 640 640 l 1,6,-1
 640 0 l 1,7,-1
 0 0 l 1,4,-1
EndSplineSet
EndChar

StartChar: P
Encoding: 80 80 29
Width: 768
GlyphClass: 1
Flags: W
LayerCount: 2
Fore
SplineSet
512 384 m 1,0,-1
 512 512 l 1,1,-1
 128 512 l 1,2,-1
 128 384 l 1,3,-1
 512 384 l 1,0,-1
0 0 m 1,4,-1
 0 640 l 1,5,-1
 640 640 l 1,6,-1
 640 256 l 1,7,-1
 128 256 l 1,8,-1
 128 0 l 1,9,-1
 0 0 l 1,4,-1
EndSplineSet
EndChar

StartChar: Q
Encoding: 81 81 30
Width: 768
GlyphClass: 1
Flags: W
LayerCount: 2
Fore
SplineSet
384 128 m 1,0,-1
 384 256 l 1,1,-1
 512 256 l 1,2,-1
 512 512 l 1,3,-1
 128 512 l 1,4,-1
 128 128 l 1,5,-1
 384 128 l 1,0,-1
0 0 m 1,6,-1
 0 640 l 1,7,-1
 640 640 l 1,8,-1
 640 0 l 1,9,-1
 0 0 l 1,6,-1
EndSplineSet
EndChar

StartChar: R
Encoding: 82 82 31
Width: 768
GlyphClass: 1
Flags: W
LayerCount: 2
Fore
SplineSet
512 0 m 1,0,-1
 512 128 l 1,1,-1
 640 128 l 1,2,-1
 640 0 l 1,3,-1
 512 0 l 1,0,-1
512 384 m 1,4,-1
 512 512 l 1,5,-1
 128 512 l 1,6,-1
 128 384 l 1,7,-1
 512 384 l 1,4,-1
0 0 m 1,8,-1
 0 640 l 1,9,-1
 640 640 l 1,10,-1
 640 256 l 1,11,-1
 512 256 l 1,12,-1
 512 128 l 1,13,-1
 384 128 l 1,14,-1
 384 256 l 1,15,-1
 128 256 l 1,16,-1
 128 0 l 1,17,-1
 0 0 l 1,8,-1
EndSplineSet
EndChar

StartChar: S
Encoding: 83 83 32
Width: 768
GlyphClass: 1
Flags: W
LayerCount: 2
Fore
SplineSet
0 0 m 1,0,-1
 0 128 l 1,1,-1
 512 128 l 1,2,-1
 512 256 l 1,3,-1
 0 256 l 1,4,-1
 0 640 l 1,5,-1
 640 640 l 1,6,-1
 640 512 l 1,7,-1
 128 512 l 1,8,-1
 128 384 l 1,9,-1
 640 384 l 1,10,-1
 640 0 l 1,11,-1
 0 0 l 1,0,-1
EndSplineSet
EndChar

StartChar: T
Encoding: 84 84 33
Width: 768
GlyphClass: 1
Flags: W
LayerCount: 2
Fore
SplineSet
256 0 m 1,0,-1
 256 512 l 1,1,-1
 0 512 l 1,2,-1
 0 640 l 1,3,-1
 640 640 l 1,4,-1
 640 512 l 1,5,-1
 384 512 l 1,6,-1
 384 0 l 1,7,-1
 256 0 l 1,0,-1
EndSplineSet
EndChar

StartChar: U
Encoding: 85 85 34
Width: 768
GlyphClass: 1
Flags: W
LayerCount: 2
Fore
SplineSet
0 0 m 1,0,-1
 0 640 l 1,1,-1
 128 640 l 1,2,-1
 128 128 l 1,3,-1
 512 128 l 1,4,-1
 512 640 l 1,5,-1
 640 640 l 1,6,-1
 640 0 l 1,7,-1
 0 0 l 1,0,-1
EndSplineSet
EndChar

StartChar: V
Encoding: 86 86 35
Width: 768
GlyphClass: 1
Flags: W
LayerCount: 2
Fore
SplineSet
256 0 m 1,0,-1
 256 128 l 1,1,-1
 384 128 l 1,2,-1
 384 0 l 1,3,-1
 256 0 l 1,0,-1
128 128 m 1,4,-1
 128 384 l 1,5,-1
 256 384 l 1,6,-1
 256 128 l 1,7,-1
 128 128 l 1,4,-1
384 128 m 1,8,-1
 384 384 l 1,9,-1
 512 384 l 1,10,-1
 512 128 l 1,11,-1
 384 128 l 1,8,-1
0 384 m 1,12,-1
 0 640 l 1,13,-1
 128 640 l 1,14,-1
 128 384 l 1,15,-1
 0 384 l 1,12,-1
512 384 m 1,16,-1
 512 640 l 1,17,-1
 640 640 l 1,18,-1
 640 384 l 1,19,-1
 512 384 l 1,16,-1
EndSplineSet
EndChar

StartChar: W
Encoding: 87 87 36
Width: 768
GlyphClass: 1
Flags: W
LayerCount: 2
Fore
SplineSet
256 128 m 1,0,-1
 256 256 l 1,1,-1
 384 256 l 1,2,-1
 384 128 l 1,3,-1
 256 128 l 1,0,-1
0 0 m 1,4,-1
 0 640 l 1,5,-1
 128 640 l 1,6,-1
 128 128 l 1,7,-1
 256 128 l 1,8,-1
 256 0 l 1,9,-1
 0 0 l 1,4,-1
384 0 m 1,10,-1
 384 128 l 1,11,-1
 512 128 l 1,12,-1
 512 640 l 1,13,-1
 640 640 l 1,14,-1
 640 0 l 1,15,-1
 384 0 l 1,10,-1
EndSplineSet
EndChar

StartChar: X
Encoding: 88 88 37
Width: 768
GlyphClass: 1
Flags: W
LayerCount: 2
Fore
SplineSet
0 0 m 1,0,-1
 0 128 l 1,1,-1
 128 128 l 1,2,-1
 128 0 l 1,3,-1
 0 0 l 1,0,-1
512 0 m 1,4,-1
 512 128 l 1,5,-1
 640 128 l 1,6,-1
 640 0 l 1,7,-1
 512 0 l 1,4,-1
128 128 m 1,8,-1
 128 256 l 1,9,-1
 256 256 l 1,10,-1
 256 128 l 1,11,-1
 128 128 l 1,8,-1
384 128 m 1,12,-1
 384 256 l 1,13,-1
 512 256 l 1,14,-1
 512 128 l 1,15,-1
 384 128 l 1,12,-1
256 256 m 1,16,-1
 256 384 l 1,17,-1
 384 384 l 1,18,-1
 384 256 l 1,19,-1
 256 256 l 1,16,-1
128 384 m 1,20,-1
 128 512 l 1,21,-1
 256 512 l 1,22,-1
 256 384 l 1,23,-1
 128 384 l 1,20,-1
384 384 m 1,24,-1
 384 512 l 1,25,-1
 512 512 l 1,26,-1
 512 384 l 1,27,-1
 384 384 l 1,24,-1
0 512 m 1,28,-1
 0 640 l 1,29,-1
 128 640 l 1,30,-1
 128 512 l 1,31,-1
 0 512 l 1,28,-1
512 512 m 1,32,-1
 512 640 l 1,33,-1
 640 640 l 1,34,-1
 640 512 l 1,35,-1
 512 512 l 1,32,-1
EndSplineSet
EndChar

StartChar: Y
Encoding: 89 89 38
Width: 768
GlyphClass: 1
Flags: W
LayerCount: 2
Fore
SplineSet
256 0 m 1,0,-1
 256 384 l 1,1,-1
 384 384 l 1,2,-1
 384 0 l 1,3,-1
 256 0 l 1,0,-1
128 384 m 1,4,-1
 128 512 l 1,5,-1
 256 512 l 1,6,-1
 256 384 l 1,7,-1
 128 384 l 1,4,-1
384 384 m 1,8,-1
 384 512 l 1,9,-1
 512 512 l 1,10,-1
 512 384 l 1,11,-1
 384 384 l 1,8,-1
0 512 m 1,12,-1
 0 640 l 1,13,-1
 128 640 l 1,14,-1
 128 512 l 1,15,-1
 0 512 l 1,12,-1
512 512 m 1,16,-1
 512 640 l 1,17,-1
 640 640 l 1,18,-1
 640 512 l 1,19,-1
 512 512 l 1,16,-1
EndSplineSet
EndChar

StartChar: Z
Encoding: 90 90 39
Width: 768
GlyphClass: 1
Flags: W
LayerCount: 2
Fore
SplineSet
0 0 m 1,0,-1
 0 128 l 1,1,-1
 128 128 l 1,2,-1
 128 256 l 1,3,-1
 256 256 l 1,4,-1
 256 128 l 1,5,-1
 640 128 l 1,6,-1
 640 0 l 1,7,-1
 0 0 l 1,0,-1
256 256 m 1,8,-1
 256 384 l 1,9,-1
 384 384 l 1,10,-1
 384 256 l 1,11,-1
 256 256 l 1,8,-1
384 384 m 1,12,-1
 384 512 l 1,13,-1
 0 512 l 1,14,-1
 0 640 l 1,15,-1
 640 640 l 1,16,-1
 640 512 l 1,17,-1
 512 512 l 1,18,-1
 512 384 l 1,19,-1
 384 384 l 1,12,-1
EndSplineSet
EndChar

StartChar: bracketleft
Encoding: 91 91 40
Width: 768
GlyphClass: 2
Flags: W
LayerCount: 2
Fore
SplineSet
0 640 m 1,0,-1
 290 640 l 1,1,-1
 290 512 l 1,2,-1
 134 512 l 1,3,-1
 134 128 l 1,4,-1
 290 128 l 1,5,-1
 290 0 l 1,6,-1
 0 0 l 1,7,-1
 0 640 l 1,0,-1
EndSplineSet
EndChar

StartChar: backslash
Encoding: 92 92 41
Width: 768
GlyphClass: 2
Flags: W
LayerCount: 2
Fore
SplineSet
512 0 m 1,0,-1
 512 128 l 1,1,-1
 640 128 l 1,2,-1
 640 0 l 1,3,-1
 512 0 l 1,0,-1
256 256 m 1024,4,-1
384 128 m 1,5,-1
 384 256 l 1,6,-1
 512 256 l 1,7,-1
 512 128 l 1,8,-1
 384 128 l 1,5,-1
256 256 m 1,9,-1
 256 384 l 1,10,-1
 384 384 l 1,11,-1
 384 256 l 1,12,-1
 256 256 l 1,9,-1
128 384 m 1,13,-1
 128 512 l 1,14,-1
 256 512 l 1,15,-1
 256 384 l 1,16,-1
 128 384 l 1,13,-1
384 384 m 1024,17,-1
0 512 m 1,18,-1
 0 640 l 1,19,-1
 128 640 l 1,20,-1
 128 512 l 1,21,-1
 0 512 l 1,18,-1
EndSplineSet
EndChar

StartChar: bracketright
Encoding: 93 93 42
Width: 768
GlyphClass: 2
Flags: W
LayerCount: 2
Fore
SplineSet
290 0 m 1,0,-1
 0 0 l 1,1,-1
 0 128 l 1,2,-1
 156 128 l 1,3,-1
 156 512 l 1,4,-1
 0 512 l 1,5,-1
 0 640 l 1,6,-1
 290 640 l 1,7,-1
 290 0 l 1,0,-1
EndSplineSet
EndChar

StartChar: a
Encoding: 97 97 43
Width: 768
GlyphClass: 1
Flags: W
LayerCount: 2
Fore
SplineSet
512 384 m 1,0,-1
 512 512 l 1,1,-1
 128 512 l 1,2,-1
 128 384 l 1,3,-1
 512 384 l 1,0,-1
0 0 m 1,4,-1
 0 640 l 1,5,-1
 640 640 l 1,6,-1
 640 0 l 1,7,-1
 512 0 l 1,8,-1
 512 256 l 1,9,-1
 128 256 l 1,10,-1
 128 0 l 1,11,-1
 0 0 l 1,4,-1
EndSplineSet
EndChar

StartChar: b
Encoding: 98 98 44
Width: 768
GlyphClass: 1
Flags: W
LayerCount: 2
Fore
SplineSet
0 0 m 1,0,-1
 0 640 l 1,1,-1
 512 640 l 1,2,-1
 512 512 l 1,3,-1
 128 512 l 1,4,-1
 128 384 l 1,5,-1
 512 384 l 1,6,-1
 512 512 l 1,7,-1
 640 512 l 1,8,-1
 640 128 l 1,9,-1
 512 128 l 1,10,-1
 512 256 l 1,11,-1
 128 256 l 1,12,-1
 128 128 l 1,13,-1
 512 128 l 1,14,-1
 512 0 l 1,15,-1
 0 0 l 1,0,-1
EndSplineSet
EndChar

StartChar: c
Encoding: 99 99 45
Width: 768
GlyphClass: 1
Flags: W
LayerCount: 2
Fore
SplineSet
0 0 m 1,0,-1
 0 640 l 1,1,-1
 640 640 l 1,2,-1
 640 512 l 1,3,-1
 128 512 l 1,4,-1
 128 128 l 1,5,-1
 640 128 l 1,6,-1
 640 0 l 1,7,-1
 0 0 l 1,0,-1
EndSplineSet
EndChar

StartChar: d
Encoding: 100 100 46
Width: 768
GlyphClass: 1
Flags: W
LayerCount: 2
Fore
SplineSet
512 128 m 1,0,-1
 512 512 l 1,1,-1
 640 512 l 1,2,-1
 640 128 l 1,3,-1
 512 128 l 1,0,-1
0 0 m 1,4,-1
 0 640 l 1,5,-1
 512 640 l 1,6,-1
 512 512 l 1,7,-1
 128 512 l 1,8,-1
 128 128 l 1,9,-1
 512 128 l 1,10,-1
 512 0 l 1,11,-1
 0 0 l 1,4,-1
EndSplineSet
EndChar

StartChar: e
Encoding: 101 101 47
Width: 768
GlyphClass: 1
Flags: W
LayerCount: 2
Fore
SplineSet
0 0 m 1,0,-1
 0 640 l 1,1,-1
 640 640 l 1,2,-1
 640 512 l 1,3,-1
 128 512 l 1,4,-1
 128 384 l 1,5,-1
 512 384 l 1,6,-1
 512 256 l 1,7,-1
 128 256 l 1,8,-1
 128 128 l 1,9,-1
 640 128 l 1,10,-1
 640 0 l 1,11,-1
 0 0 l 1,0,-1
EndSplineSet
EndChar

StartChar: f
Encoding: 102 102 48
Width: 768
GlyphClass: 1
Flags: W
LayerCount: 2
Fore
SplineSet
0 0 m 1,0,-1
 0 640 l 1,1,-1
 640 640 l 1,2,-1
 640 512 l 1,3,-1
 128 512 l 1,4,-1
 128 384 l 1,5,-1
 512 384 l 1,6,-1
 512 256 l 1,7,-1
 128 256 l 1,8,-1
 128 0 l 1,9,-1
 0 0 l 1,0,-1
EndSplineSet
EndChar

StartChar: g
Encoding: 103 103 49
Width: 768
GlyphClass: 1
Flags: W
LayerCount: 2
Fore
SplineSet
0 0 m 1,0,-1
 0 640 l 1,1,-1
 640 640 l 1,2,-1
 640 512 l 1,3,-1
 128 512 l 1,4,-1
 128 128 l 1,5,-1
 512 128 l 1,6,-1
 512 256 l 1,7,-1
 256 256 l 1,8,-1
 256 384 l 1,9,-1
 640 384 l 1,10,-1
 640 0 l 1,11,-1
 0 0 l 1,0,-1
EndSplineSet
EndChar

StartChar: h
Encoding: 104 104 50
Width: 768
GlyphClass: 1
Flags: W
LayerCount: 2
Fore
SplineSet
0 0 m 1,0,-1
 0 640 l 1,1,-1
 128 640 l 1,2,-1
 128 384 l 1,3,-1
 512 384 l 1,4,-1
 512 640 l 1,5,-1
 640 640 l 1,6,-1
 640 0 l 1,7,-1
 512 0 l 1,8,-1
 512 256 l 1,9,-1
 128 256 l 1,10,-1
 128 0 l 1,11,-1
 0 0 l 1,0,-1
EndSplineSet
EndChar

StartChar: i
Encoding: 105 105 51
Width: 768
GlyphClass: 1
Flags: W
LayerCount: 2
Fore
SplineSet
0 0 m 1,0,-1
 0 128 l 1,1,-1
 256 128 l 1,2,-1
 256 512 l 1,3,-1
 0 512 l 1,4,-1
 0 640 l 1,5,-1
 640 640 l 1,6,-1
 640 512 l 1,7,-1
 384 512 l 1,8,-1
 384 128 l 1,9,-1
 640 128 l 1,10,-1
 640 0 l 1,11,-1
 0 0 l 1,0,-1
EndSplineSet
EndChar

StartChar: j
Encoding: 106 106 52
Width: 640
GlyphClass: 1
Flags: W
LayerCount: 2
Fore
SplineSet
0 0 m 1,0,-1
 0 256 l 1,1,-1
 128 256 l 1,2,-1
 128 128 l 1,3,-1
 256 128 l 1,4,-1
 256 512 l 1,5,-1
 0 512 l 1,6,-1
 0 640 l 1,7,-1
 512 640 l 1,8,-1
 512 512 l 1,9,-1
 384 512 l 1,10,-1
 384 0 l 1,11,-1
 0 0 l 1,0,-1
EndSplineSet
EndChar

StartChar: k
Encoding: 107 107 53
Width: 640
GlyphClass: 1
Flags: W
LayerCount: 2
Fore
SplineSet
384 0 m 1,0,-1
 384 128 l 1,1,-1
 512 128 l 1,2,-1
 512 0 l 1,3,-1
 384 0 l 1,0,-1
256 128 m 1,4,-1
 256 256 l 1,5,-1
 384 256 l 1,6,-1
 384 128 l 1,7,-1
 256 128 l 1,4,-1
256 384 m 1,8,-1
 256 512 l 1,9,-1
 384 512 l 1,10,-1
 384 384 l 1,11,-1
 256 384 l 1,8,-1
0 0 m 1,12,-1
 0 640 l 1,13,-1
 128 640 l 1,14,-1
 128 384 l 1,15,-1
 256 384 l 1,16,-1
 256 256 l 1,17,-1
 128 256 l 1,18,-1
 128 0 l 1,19,-1
 0 0 l 1,12,-1
384 512 m 1,20,-1
 384 640 l 1,21,-1
 512 640 l 1,22,-1
 512 512 l 1,23,-1
 384 512 l 1,20,-1
EndSplineSet
EndChar

StartChar: l
Encoding: 108 108 54
Width: 640
GlyphClass: 1
Flags: W
LayerCount: 2
Fore
SplineSet
0 0 m 1,0,-1
 0 640 l 1,1,-1
 128 640 l 1,2,-1
 128 128 l 1,3,-1
 512 128 l 1,4,-1
 512 0 l 1,5,-1
 0 0 l 1,0,-1
EndSplineSet
EndChar

StartChar: m
Encoding: 109 109 55
Width: 768
GlyphClass: 1
Flags: W
LayerCount: 2
Fore
SplineSet
256 256 m 1,0,-1
 256 384 l 1,1,-1
 384 384 l 1,2,-1
 384 256 l 1,3,-1
 256 256 l 1,0,-1
0 0 m 1,4,-1
 0 640 l 1,5,-1
 128 640 l 1,6,-1
 128 512 l 1,7,-1
 256 512 l 1,8,-1
 256 384 l 1,9,-1
 128 384 l 1,10,-1
 128 0 l 1,11,-1
 0 0 l 1,4,-1
512 0 m 1,12,-1
 512 384 l 1,13,-1
 384 384 l 1,14,-1
 384 512 l 1,15,-1
 512 512 l 1,16,-1
 512 640 l 1,17,-1
 640 640 l 1,18,-1
 640 0 l 1,19,-1
 512 0 l 1,12,-1
EndSplineSet
EndChar

StartChar: n
Encoding: 110 110 56
Width: 768
GlyphClass: 1
Flags: W
LayerCount: 2
Fore
SplineSet
256 256 m 1,0,-1
 256 384 l 1,1,-1
 384 384 l 1,2,-1
 384 256 l 1,3,-1
 256 256 l 1,0,-1
0 0 m 1,4,-1
 0 640 l 1,5,-1
 128 640 l 1,6,-1
 128 512 l 1,7,-1
 256 512 l 1,8,-1
 256 384 l 1,9,-1
 128 384 l 1,10,-1
 128 0 l 1,11,-1
 0 0 l 1,4,-1
512 0 m 1,12,-1
 512 128 l 1,13,-1
 384 128 l 1,14,-1
 384 256 l 1,15,-1
 512 256 l 1,16,-1
 512 640 l 1,17,-1
 640 640 l 1,18,-1
 640 0 l 1,19,-1
 512 0 l 1,12,-1
EndSplineSet
EndChar

StartChar: o
Encoding: 111 111 57
Width: 768
GlyphClass: 1
Flags: W
LayerCount: 2
Fore
SplineSet
512 128 m 1,0,-1
 512 512 l 1,1,-1
 128 512 l 1,2,-1
 128 128 l 1,3,-1
 512 128 l 1,0,-1
0 0 m 1,4,-1
 0 640 l 1,5,-1
 640 640 l 1,6,-1
 640 0 l 1,7,-1
 0 0 l 1,4,-1
EndSplineSet
EndChar

StartChar: p
Encoding: 112 112 58
Width: 768
GlyphClass: 1
Flags: W
LayerCount: 2
Fore
SplineSet
512 384 m 1,0,-1
 512 512 l 1,1,-1
 128 512 l 1,2,-1
 128 384 l 1,3,-1
 512 384 l 1,0,-1
0 0 m 1,4,-1
 0 640 l 1,5,-1
 640 640 l 1,6,-1
 640 256 l 1,7,-1
 128 256 l 1,8,-1
 128 0 l 1,9,-1
 0 0 l 1,4,-1
EndSplineSet
EndChar

StartChar: q
Encoding: 113 113 59
Width: 768
GlyphClass: 1
Flags: W
LayerCount: 2
Fore
SplineSet
384 128 m 1,0,-1
 384 256 l 1,1,-1
 512 256 l 1,2,-1
 512 512 l 1,3,-1
 128 512 l 1,4,-1
 128 128 l 1,5,-1
 384 128 l 1,0,-1
0 0 m 1,6,-1
 0 640 l 1,7,-1
 640 640 l 1,8,-1
 640 0 l 1,9,-1
 0 0 l 1,6,-1
EndSplineSet
EndChar

StartChar: r
Encoding: 114 114 60
Width: 768
GlyphClass: 1
Flags: W
LayerCount: 2
Fore
SplineSet
512 0 m 1,0,-1
 512 128 l 1,1,-1
 640 128 l 1,2,-1
 640 0 l 1,3,-1
 512 0 l 1,0,-1
512 384 m 1,4,-1
 512 512 l 1,5,-1
 128 512 l 1,6,-1
 128 384 l 1,7,-1
 512 384 l 1,4,-1
0 0 m 1,8,-1
 0 640 l 1,9,-1
 640 640 l 1,10,-1
 640 256 l 1,11,-1
 512 256 l 1,12,-1
 512 128 l 1,13,-1
 384 128 l 1,14,-1
 384 256 l 1,15,-1
 128 256 l 1,16,-1
 128 0 l 1,17,-1
 0 0 l 1,8,-1
EndSplineSet
EndChar

StartChar: s
Encoding: 115 115 61
Width: 768
GlyphClass: 1
Flags: W
LayerCount: 2
Fore
SplineSet
0 0 m 1,0,-1
 0 128 l 1,1,-1
 512 128 l 1,2,-1
 512 256 l 1,3,-1
 0 256 l 1,4,-1
 0 640 l 1,5,-1
 640 640 l 1,6,-1
 640 512 l 1,7,-1
 128 512 l 1,8,-1
 128 384 l 1,9,-1
 640 384 l 1,10,-1
 640 0 l 1,11,-1
 0 0 l 1,0,-1
EndSplineSet
EndChar

StartChar: t
Encoding: 116 116 62
Width: 768
GlyphClass: 1
Flags: W
LayerCount: 2
Fore
SplineSet
256 0 m 1,0,-1
 256 512 l 1,1,-1
 0 512 l 1,2,-1
 0 640 l 1,3,-1
 640 640 l 1,4,-1
 640 512 l 1,5,-1
 384 512 l 1,6,-1
 384 0 l 1,7,-1
 256 0 l 1,0,-1
EndSplineSet
EndChar

StartChar: u
Encoding: 117 117 63
Width: 768
GlyphClass: 1
Flags: W
LayerCount: 2
Fore
SplineSet
0 0 m 1,0,-1
 0 640 l 1,1,-1
 128 640 l 1,2,-1
 128 128 l 1,3,-1
 512 128 l 1,4,-1
 512 640 l 1,5,-1
 640 640 l 1,6,-1
 640 0 l 1,7,-1
 0 0 l 1,0,-1
EndSplineSet
EndChar

StartChar: v
Encoding: 118 118 64
Width: 768
GlyphClass: 1
Flags: W
LayerCount: 2
Fore
SplineSet
256 0 m 1,0,-1
 256 128 l 1,1,-1
 384 128 l 1,2,-1
 384 0 l 1,3,-1
 256 0 l 1,0,-1
128 128 m 1,4,-1
 128 384 l 1,5,-1
 256 384 l 1,6,-1
 256 128 l 1,7,-1
 128 128 l 1,4,-1
384 128 m 1,8,-1
 384 384 l 1,9,-1
 512 384 l 1,10,-1
 512 128 l 1,11,-1
 384 128 l 1,8,-1
0 384 m 1,12,-1
 0 640 l 1,13,-1
 128 640 l 1,14,-1
 128 384 l 1,15,-1
 0 384 l 1,12,-1
512 384 m 1,16,-1
 512 640 l 1,17,-1
 640 640 l 1,18,-1
 640 384 l 1,19,-1
 512 384 l 1,16,-1
EndSplineSet
EndChar

StartChar: w
Encoding: 119 119 65
Width: 768
GlyphClass: 1
Flags: W
LayerCount: 2
Fore
SplineSet
256 256 m 1,0,-1
 256 384 l 1,1,-1
 384 384 l 1,2,-1
 384 256 l 1,3,-1
 256 256 l 1,0,-1
0 0 m 1,4,-1
 0 640 l 1,5,-1
 128 640 l 1,6,-1
 128 256 l 1,7,-1
 256 256 l 1,8,-1
 256 128 l 1,9,-1
 128 128 l 1,10,-1
 128 0 l 1,11,-1
 0 0 l 1,4,-1
512 0 m 1,12,-1
 512 128 l 1,13,-1
 384 128 l 1,14,-1
 384 256 l 1,15,-1
 512 256 l 1,16,-1
 512 640 l 1,17,-1
 640 640 l 1,18,-1
 640 0 l 1,19,-1
 512 0 l 1,12,-1
EndSplineSet
EndChar

StartChar: x
Encoding: 120 120 66
Width: 768
GlyphClass: 1
Flags: W
LayerCount: 2
Fore
SplineSet
0 0 m 1,0,-1
 0 128 l 1,1,-1
 128 128 l 1,2,-1
 128 0 l 1,3,-1
 0 0 l 1,0,-1
512 0 m 1,4,-1
 512 128 l 1,5,-1
 640 128 l 1,6,-1
 640 0 l 1,7,-1
 512 0 l 1,4,-1
128 128 m 1,8,-1
 128 256 l 1,9,-1
 256 256 l 1,10,-1
 256 128 l 1,11,-1
 128 128 l 1,8,-1
384 128 m 1,12,-1
 384 256 l 1,13,-1
 512 256 l 1,14,-1
 512 128 l 1,15,-1
 384 128 l 1,12,-1
256 256 m 1,16,-1
 256 384 l 1,17,-1
 384 384 l 1,18,-1
 384 256 l 1,19,-1
 256 256 l 1,16,-1
128 384 m 1,20,-1
 128 512 l 1,21,-1
 256 512 l 1,22,-1
 256 384 l 1,23,-1
 128 384 l 1,20,-1
384 384 m 1,24,-1
 384 512 l 1,25,-1
 512 512 l 1,26,-1
 512 384 l 1,27,-1
 384 384 l 1,24,-1
0 512 m 1,28,-1
 0 640 l 1,29,-1
 128 640 l 1,30,-1
 128 512 l 1,31,-1
 0 512 l 1,28,-1
512 512 m 1,32,-1
 512 640 l 1,33,-1
 640 640 l 1,34,-1
 640 512 l 1,35,-1
 512 512 l 1,32,-1
EndSplineSet
EndChar

StartChar: y
Encoding: 121 121 67
Width: 768
GlyphClass: 1
Flags: W
LayerCount: 2
Fore
SplineSet
256 0 m 1,0,-1
 256 384 l 1,1,-1
 384 384 l 1,2,-1
 384 0 l 1,3,-1
 256 0 l 1,0,-1
128 384 m 1,4,-1
 128 512 l 1,5,-1
 256 512 l 1,6,-1
 256 384 l 1,7,-1
 128 384 l 1,4,-1
384 384 m 1,8,-1
 384 512 l 1,9,-1
 512 512 l 1,10,-1
 512 384 l 1,11,-1
 384 384 l 1,8,-1
0 512 m 1,12,-1
 0 640 l 1,13,-1
 128 640 l 1,14,-1
 128 512 l 1,15,-1
 0 512 l 1,12,-1
512 512 m 1,16,-1
 512 640 l 1,17,-1
 640 640 l 1,18,-1
 640 512 l 1,19,-1
 512 512 l 1,16,-1
EndSplineSet
EndChar

StartChar: z
Encoding: 122 122 68
Width: 768
GlyphClass: 1
Flags: W
LayerCount: 2
Fore
SplineSet
0 0 m 1,0,-1
 0 128 l 1,1,-1
 128 128 l 1,2,-1
 128 256 l 1,3,-1
 256 256 l 1,4,-1
 256 128 l 1,5,-1
 640 128 l 1,6,-1
 640 0 l 1,7,-1
 0 0 l 1,0,-1
256 256 m 1,8,-1
 256 384 l 1,9,-1
 384 384 l 1,10,-1
 384 256 l 1,11,-1
 256 256 l 1,8,-1
384 384 m 1,12,-1
 384 512 l 1,13,-1
 0 512 l 1,14,-1
 0 640 l 1,15,-1
 640 640 l 1,16,-1
 640 512 l 1,17,-1
 512 512 l 1,18,-1
 512 384 l 1,19,-1
 384 384 l 1,12,-1
EndSplineSet
EndChar

StartChar: bar
Encoding: 124 124 69
Width: 768
GlyphClass: 2
Flags: W
LayerCount: 2
Fore
SplineSet
320 0 m 1,0,-1
 320 640 l 1,1,-1
 430 640 l 1,2,-1
 430 0 l 1,3,-1
 320 0 l 1,0,-1
EndSplineSet
EndChar

StartChar: colon
Encoding: 58 58 70
Width: 768
Flags: W
LayerCount: 2
Fore
SplineSet
256 256 m 1,0,-1
 384 256 l 1,1,-1
 384 130 l 1,2,-1
 256 130 l 1,3,-1
 256 256 l 1,0,-1
256 511 m 1,4,-1
 384 511 l 1,5,-1
 384 385 l 1,6,-1
 256 385 l 1,7,-1
 256 511 l 1,4,-1
EndSplineSet
EndChar

StartChar: exclam
Encoding: 33 33 71
Width: 768
Flags: W
LayerCount: 2
Fore
SplineSet
254 620 m 5,0,-1
 384 620 l 5,1,-1
 384 203 l 5,2,-1
 254 203 l 5,3,-1
 254 620 l 5,0,-1
254 127 m 1,4,-1
 384 127 l 1,5,-1
 384 0 l 1,6,-1
 254 0 l 1,7,-1
 254 127 l 1,4,-1
EndSplineSet
EndChar

StartChar: slash
Encoding: 47 47 72
Width: 768
Flags: W
LayerCount: 2
Fore
SplineSet
128 0 m 5,0,-1
 128 128 l 5,1,-1
 0 128 l 5,2,-1
 0 0 l 5,3,-1
 128 0 l 5,0,-1
384 256 m 1028,4,-1
256 128 m 5,5,-1
 256 256 l 5,6,-1
 128 256 l 5,7,-1
 128 128 l 5,8,-1
 256 128 l 5,5,-1
384 256 m 5,9,-1
 384 384 l 5,10,-1
 256 384 l 5,11,-1
 256 256 l 5,12,-1
 384 256 l 5,9,-1
512 384 m 5,13,-1
 512 512 l 5,14,-1
 384 512 l 5,15,-1
 384 384 l 5,16,-1
 512 384 l 5,13,-1
256 384 m 1028,17,-1
640 512 m 5,18,-1
 640 640 l 5,19,-1
 512 640 l 5,20,-1
 512 512 l 5,21,-1
 640 512 l 5,18,-1
EndSplineSet
EndChar

StartChar: question
Encoding: 63 63 73
Width: 768
Flags: W
LayerCount: 2
Fore
SplineSet
57.849609375 513.150390625 m 1,0,-1
 57.849609375 641.25 l 1,1,-1
 185.950195312 641.25 l 1,2,-1
 185.950195312 513.150390625 l 1,3,-1
 57.849609375 513.150390625 l 1,0,-1
185.950195312 513.150390625 m 1,4,-1
 185.950195312 641.25 l 1,5,-1
 314.049804688 641.25 l 1,6,-1
 314.049804688 513.150390625 l 1,7,-1
 185.950195312 513.150390625 l 1,4,-1
314.049804688 513.150390625 m 1,8,-1
 314.049804688 641.25 l 1,9,-1
 442.150390625 641.25 l 1,10,-1
 442.150390625 513.150390625 l 1,11,-1
 314.049804688 513.150390625 l 1,8,-1
314.049804688 385.049804688 m 1,12,-1
 314.049804688 513.150390625 l 1,13,-1
 442.150390625 513.150390625 l 1,14,-1
 442.150390625 385.049804688 l 1,15,-1
 314.049804688 385.049804688 l 1,12,-1
185.950195312 256.950195312 m 1,16,-1
 185.950195312 385.049804688 l 1,17,-1
 314.049804688 385.049804688 l 1,18,-1
 314.049804688 256.950195312 l 1,19,-1
 185.950195312 256.950195312 l 1,16,-1
314.049804688 256.950195312 m 1,20,-1
 314.049804688 385.049804688 l 1,21,-1
 442.150390625 385.049804688 l 1,22,-1
 442.150390625 256.950195312 l 1,23,-1
 314.049804688 256.950195312 l 1,20,-1
185.950195312 0.75 m 1,24,-1
 185.950195312 128.849609375 l 1,25,-1
 314.049804688 128.849609375 l 1,26,-1
 314.049804688 0.75 l 1,27,-1
 185.950195312 0.75 l 1,24,-1
EndSplineSet
EndChar

StartChar: at
Encoding: 64 64 74
Width: 768
Flags: W
LayerCount: 2
Fore
SplineSet
129.026367188 513.573242188 m 1,0,-1
 129.026367188 642.055664062 l 1,1,-1
 257.508789062 642.055664062 l 1,2,-1
 257.508789062 513.573242188 l 1,3,-1
 129.026367188 513.573242188 l 1,0,-1
257.508789062 513.573242188 m 1,4,-1
 257.508789062 642.055664062 l 1,5,-1
 385.991210938 642.055664062 l 1,6,-1
 385.991210938 513.573242188 l 1,7,-1
 257.508789062 513.573242188 l 1,4,-1
385.991210938 513.573242188 m 1,8,-1
 385.991210938 642.055664062 l 1,9,-1
 514.473632812 642.055664062 l 1,10,-1
 514.473632812 513.573242188 l 1,11,-1
 385.991210938 513.573242188 l 1,8,-1
0.5439453125 385.090820312 m 1,12,-1
 0.5439453125 513.573242188 l 1,13,-1
 129.026367188 513.573242188 l 1,14,-1
 129.026367188 385.090820312 l 1,15,-1
 0.5439453125 385.090820312 l 1,12,-1
385.991210938 385.090820312 m 1,16,-1
 385.991210938 513.573242188 l 1,17,-1
 514.473632812 513.573242188 l 1,18,-1
 514.473632812 385.090820312 l 1,19,-1
 385.991210938 385.090820312 l 1,16,-1
514.473632812 385.090820312 m 1,20,-1
 514.473632812 513.573242188 l 1,21,-1
 642.956054688 513.573242188 l 1,22,-1
 642.956054688 385.090820312 l 1,23,-1
 514.473632812 385.090820312 l 1,20,-1
0.5439453125 256.609375 m 1,24,-1
 0.5439453125 385.090820312 l 1,25,-1
 129.026367188 385.090820312 l 1,26,-1
 129.026367188 256.609375 l 1,27,-1
 16 256.609375 l 4,28,29
 16 256.609375 16 256.609375 0.5439453125 256.609375 c 1,24,-1
257.508789062 256.609375 m 1,30,-1
 257.508789062 385.090820312 l 1,31,-1
 385.991210938 385.090820312 l 1,32,-1
 385.991210938 256.609375 l 1,33,-1
 257.508789062 256.609375 l 1,30,-1
385.991210938 256.609375 m 1,34,-1
 385.991210938 385.090820312 l 1,35,-1
 514.473632812 385.090820312 l 1,36,-1
 514.473632812 256.609375 l 1,37,-1
 385.991210938 256.609375 l 1,34,-1
0.5439453125 128.126953125 m 1,38,-1
 0.5439453125 256.609375 l 1,39,-1
 129.026367188 256.609375 l 1,40,-1
 129.026367188 128.126953125 l 1,41,-1
 0.5439453125 128.126953125 l 1,38,-1
129.026367188 -0.35546875 m 1,42,-1
 129.026367188 128.126953125 l 1,43,-1
 257.508789062 128.126953125 l 1,44,-1
 257.508789062 -0.35546875 l 1,45,-1
 129.026367188 -0.35546875 l 1,42,-1
257.508789062 -0.35546875 m 1,46,-1
 257.508789062 128.126953125 l 1,47,-1
 385.991210938 128.126953125 l 1,48,-1
 385.991210938 -0.35546875 l 1,49,-1
 257.508789062 -0.35546875 l 1,46,-1
385.991210938 -0.35546875 m 1,50,-1
 385.991210938 128.126953125 l 1,51,-1
 514.473632812 128.126953125 l 1,52,-1
 514.473632812 -0.35546875 l 1,53,-1
 385.991210938 -0.35546875 l 1,50,-1
EndSplineSet
EndChar

StartChar: period
Encoding: 46 46 75
Width: 1024
LayerCount: 2
Fore
SplineSet
209 131 m 5,0,-1
 341 131 l 1,1,-1
 341 0 l 1,2,-1
 209 0 l 1,3,-1
 209 131 l 5,0,-1
EndSplineSet
EndChar

StartChar: hyphen
Encoding: 45 45 76
Width: 768
Flags: W
LayerCount: 2
Fore
SplineSet
148 381 m 1,0,-1
 497 381 l 1,1,-1
 497 257 l 1,2,-1
 148 257 l 1,3,-1
 148 381 l 1,0,-1
EndSplineSet
EndChar
